/* XPM */
static char *_278dd746d0b4d29d52e83bfa2c7a8c0a13a4UGJcoR4HzDe[] = {
/* columns rows colors chars-per-pixel */
"64 62 88 1 ",
"  c black",
". c #040203",
"X c #070306",
"o c #080407",
"O c #090408",
"+ c #0D060B",
"@ c #0F070D",
"# c #10080D",
"$ c #0B0419",
"% c #130910",
"& c #140A11",
"* c #170B13",
"= c #180C14",
"- c #1D0E18",
"; c #20101B",
": c #23111D",
"> c #25121F",
", c #0F0520",
"< c #100523",
"1 c #110624",
"2 c #140726",
"3 c #150826",
"4 c #15062E",
"5 c #130929",
"6 c #170A28",
"7 c #14092D",
"8 c #1B0C2B",
"9 c #1E0E2A",
"0 c #1F0F2E",
"q c #160C31",
"w c #170F35",
"e c #191139",
"r c #271321",
"t c #281422",
"y c #2B1524",
"u c #2E1727",
"i c #2C1B27",
"p c #21112C",
"a c #33192B",
"s c #341A2C",
"d c #331E2C",
"f c #381C2F",
"g c #2C1932",
"h c #2F193A",
"j c #3B1D32",
"k c #3C1E32",
"l c #3F1F35",
"z c #3E2436",
"x c #422137",
"c c #432138",
"v c #442239",
"b c #47233C",
"n c #49243D",
"m c #1F1446",
"M c #1F1A48",
"N c #371F40",
"B c #241E54",
"V c #2F306F",
"C c #4D2641",
"Z c #4B2E43",
"A c #4E2F45",
"S c #502843",
"D c #532946",
"F c #542946",
"G c #562A48",
"H c #582B4A",
"J c #592C4B",
"K c #5B2D4C",
"L c #5C2D4D",
"P c #4F3046",
"I c #503047",
"U c #513148",
"Y c #56334C",
"T c #59344F",
"R c #512F53",
"E c #5F2F50",
"W c #623052",
"Q c #653255",
"! c #733961",
"~ c #4F4760",
"^ c #965D86",
"/ c #985E87",
"( c #995E88",
") c #E9E9F6",
"_ c #FFEFF9",
"` c #FFF6FF",
"' c #FFF8FF",
"] c white",
/* pixels */
"<<<<<<^ZZNNNN^<Ne<<<<<^^<^<<<<<<<<8Np,<<<88VV11<<<<<<<^85eV<<<<<",
"<<<<<<NZ^^<<<^<NN5<<<<N^<^<<<<ee<<581<<18NVV<<1<<<<<<<N88<V<<<<<",
"^<<<<NNN^<<<<1^^N8<<<<N^^N1<88N88118111NVVVV<<<N<<V<<<118<V<<<<N",
"^^<<N8NN<VV<<<1<<N5<<<<^Zp188NN155eeN^^VVVV<<<<N^^^^^811N<V<<<^N",
"<<^NNp8eVVVV<<11NN55<<N^Zi38^^eeeeVVV^^VVVVe<<NNVVV<V811^<VV<^N<",
"<<<^ppN<VVVVV<<<1Ne511NZiZNNVVeee<VV<^^^<Ve<<1N^VVVVV83pN<<V<^<<",
"<<<^NNNNN^VVVV<<<1^N88pi Z^VV<<<<<<<<^Z^^_N818N<VVVV<88^N<<V<^<<",
"<<<<VeNNNN^VVVV5<13ZZZZi Z^^^^<<     ^ZZ^^NN85^^V<<<<8<NN5<V<8<<",
"<<<<V<eNeNN^VVVV8888^^^_ii  Z   ^^^Z  ^^^<<<8N^^<<<<<N^N85e^N8<<",
"<<<<<<VVNN388^^^^88<<V^^Z     ZZZZZiZ ^V<<<8N8N^^<<<<NZp8<eVN11<",
"<<<<<<<VV^8111ZZZ^<5eV<^^             <V<<^NNe<^^^<<<^^p8<V5<11<",
"V<<<<<<VVV^1<<< Z^VV<V<<^              VVV^NN<<^Z^^^^B^p8N5<<<1N",
"NV<<<<<<VV^Z11<$Z^^<^^^<      _      Z     ^e<<^Z^^^^^^ZZN8<<8^^",
"NNee<<<<V^^^^83$iZ^<^    Z         XXXX. Z ^e<)^  _q58^^NN81N^^<",
"NNNNe<VV^^^^V^ZiZZ^<< ZZZ       XX_XXXXXXX ^<~))  ^e55e^eeN^^<<<",
"<<NNN<V^^NN77^_Z^^^< ^   X.X.XXXX##XXXXXXXX(<<)^  ^e55e^^VVV<<<<",
"<<NNeee^N<<7q^ZZ^<^  Zi  oX#@##&-===%+O+ooI((^B^ Z^eeeeV^^V<<<<<",
"VeNNee88<<<mV^ZZ^^^ Zi  _%#&#==sayay--=@@OooI(^  Z^VeeeV^^VV<<<<",
"V<NNN88<<<<VV^Z        +O#=%uy]]tauuut--=#OodIA   ^VBVVV^^VVV<<<",
"VVNp31<<<<VVV^        X@&=au]]-;-=:-=t_-=@+OOXX   ^BmBVV^^^VVVV<",
"<^8111<<<eV^^^     )OXO&=Ss'&==-&%&&#=sa-=%OOoXX  ^^ BBm^Z^<VVVV",
"8111118<5e^^Z i   )))#==CC]&&==######@=ss-=@)ooo    ^^m4^Z^^V^^^",
"1111<1155N        O =#CbD]&&%F]]]]]]FD@&s>-) )oO   iZ^^<^ZZ^^^ZZ",
"<181<115N$ i      #_&&lv]-&D]'&&&&&&']D%jst-)#oO    iZ^^^ZiZZZ^^",
"N8<<<88N^ ZZZi   O#=&Jl'-xF'&&&==&&&&%]Dxjs:;-@OO    iZZZiiZ^^^<",
"<<<<<V^ZZ        O@&#b=]QD'&&&======&&%]&jua=&&OX         Z^^VV<",
"<<<<V^^^^^<<^    #%&Cb]=!@'&&&==]]]'&&&&]j-a:&#O      Zi  Z^<V<<",
"<<<VV^^^<<<<^ Z  O&&C&'E `&&=]]]nnS:'&&&]vjfs-&O    ^ ^ZZZZ^VV<<",
"<<<<<^^<<<<<V Z  O&CG#]E `;:v]vkkklC:'&&]xj:s-&O      ^^^^Z^V<<<",
"<<<<^^<<<<^^^ Z  X&Sv]C&&'::]bl:]]kkk>'&&]j-s=#O     <<<<^Z^VV<^",
"^^^^^^^^^^^   i  O=CD'j=&'-v]br]kj]llu'&&]k:s-&X     ^<<<^Z^^^^^",
"^^^^^^^^^^^ ZZi  @=js]j=&'&b]rr]lj]xxv]&&]c;:l#      ^<<<^Z^^^NN",
"<VVV^^<<<<^^  Z .=-js]l-&'&L]tcx]r]ctc];&]C--xo_     <<<<^Z^<<<N",
"<<<VV^8<<<V<< Z  O=f:]j=&'&KL]cutr]xtx];=]b--Lo      <^^^^pN<<<<",
"<<<<e8885VV<^ Z  .:ka]s-='&=LL]]]]ll_v]--]=:nWo       ^ZZZpN<<<<",
"VVVe1111N^<<^ i  _X=j]j---'==LEHnxxt:]--s]=:D&     iZ  i  pN<<<<",
"Ve51<<1pp^^^      +&js]j--='==LLL-::-]=&n'vFC#            ZNN<<<",
"N8<<<1N^^ZZ  i     #-f]j----']=====''_=v]sGD;&        ZZZiiZNNN<",
"<111<N^VNNZ       OO=fs]u:->:-''']]==C&c'jC>>+      i ^^^ZiZZZNN",
"8118<^^e<N^Z      OO=>sa]]:>;::-=--=&nv'C:t>-      i  ^V^ZZ^N8pZ",
"183N^^8<5e^^ZZ    XO+-rssa]]----====nn'vl:>-     iZ ^^VV^Z^^<88N",
"<8^ZZ1155<V^^^    .OO%->sfas]]]-=&nD]]kj>-=+     Z  ^VVV^Z^<<<<<",
"<<^Z3115VVVVV^Z    OOO@:t:ssjfj]]]]]bl=->:&        VV<VV^^^<<<<<",
"<<^^111VVVV<V^Z   ZoOOO&-:-f----=;>>-:==_o       Z^VVVVV^N<<<<<<",
"<<N1<<^^VVVVV^Z)  ^ oOO@@&=#f=;--:rr=&zYTZi   ZZiZ^VVVV<^N<<<<<<",
"<<11<<V^^<VVV^) ) ^ZXoO+O+O@#xkjlx=:%@@(/^ i  ^^ZZ^VVVVV^^<<<<<<",
"<<111<V^^^^VV^Z)^   .dIUUdXXo+ooo##@ooI.<^ZZ ^<^ZZ^VV<<^^<<<<<<<",
"N111<VVV^^^^V^ZiZZ^^ A(((PXXX)XXXXXXXXX ^^   <<^_^^<<<<^<<^88<<<",
"81<<<VVmm^^^^^Z iZ^<   3XXXX) )XXXXXXX   Z ^<<<^Z^<<<^^^^^^N88N<",
"8<<<VV<mVV^ZZZi Z^^4^^   XXXX)XXXXXXi  ^^^^^<<V^Z^^^^^^ZZ^^<<88^",
"<<<<V<<VVB^Z    Z^<BVB^Z i .......    ^^<<^^^eq^Z^^^^<^Z^^<<<<8^",
"<<<<<<<Vm^^ppZZZZ^<BVB^Z             ^<<<<^^^q5N^^<<<^^Z^V<<<NN<",
"<<<<<<<V^NpN8NN^^^^4B4^Z       ZZZZ  ^^<<<<^^N88^<<<<^ZZ^V<<h^N<",
"<<<<<<VN<N88qq7B^^^^^^^Z    Z^^^^^^Z  ^^^<<<^881<V<<7^hhRVMh6^<<",
"<<<<<<NNN88777mmV^ZZZZZi Z^^^^<<<<^^^  Z^NN^8<81eV<<<^16R<M<<^<<",
"<<<^NNNNN8<<<<<<V^^^^^Zi Z^<<<<<<<<<<^ ^^^NN881<5V<<<Rh0h<M<<h<<",
"<<<NppN<<<<<<<<V^^<<V^^ZiZ^^<<<<<<<<<^^^VVV<eN111V<<<Rg1h<M<<6<<",
"<<NN8pN<<<<<V<^^^^<<V<^^ZiZ^^^<<<<<<<^^V<<V<ee1115<<<R910MMV<2R<",
"^N<5NNN8<<<<V<^V<^<<VVV^ZZ^^^^^<<<<<^^^<<<VVVe5118^6<<h30MMV<<0^",
"N<e<<^^NN<<<V^^^^^<<<V^^^^^<^^^^^^^^^Z^^<<<VVVe1<5ew<<^32<MMV<<R",
"<e<<VV^pN^<VV^<^^<<<<V^^<^<<<<<<<<<^ZiZ^^^<VVV^5<5eVM<h^0<<MVM1<",
"ee<<e<8pp^^^^^V^<<<<<V^^<^<<<<<<<<^^Z iZZ^^<<^^eVeeV<<1^<<<M<Vw<"
};
