/* XPM */
static char *b8baccbea4c34333aee844bd7c721f25Sgq7WXrsbnHE37hp[] = {
/* columns rows colors chars-per-pixel */
"64 62 6 1 ",
"  c #100523",
". c #15062E",
"X c #170733",
"o c #1F1446",
"O c #241E54",
"+ c #2F306F",
/* pixels */
"                                                                ",
"                                                                ",
"                                                                ",
"                                                                ",
"                                                                ",
"                                                                ",
"                                                                ",
"                                                                ",
"                                                                ",
"                                                                ",
"                                                                ",
"                                                     OOOo       ",
"               ..                                  .O+++o       ",
"             ooooO                               .OO+++Oo       ",
"            oO+++O                              OO+++++Oo       ",
"           oo++OOo                            .OO++++++Oo       ",
"           oOOOOo                            OO+++++++Ooo       ",
"           ooOoo                         OOO O+++++++OoOo       ",
"            ooo                          O++oO++++++OoOOo       ",
"                                         O++o++++++OoOOo.       ",
"                                         OOOXO+++OoOOOOo        ",
"                                          .  OOOooOOOOo.        ",
"                                             ooOOOOOOo.         ",
"                                              ooooooo           ",
"                                                                ",
"                                                                ",
"                                                                ",
"                                                                ",
"                                                                ",
"                                                                ",
"                                                                ",
"                                                                ",
"                                                                ",
"                                                                ",
"                                                                ",
"                                                                ",
"                                                                ",
"                                                                ",
"                                                                ",
"                                                                ",
"                                                                ",
"                                                                ",
"                                                                ",
"                                                                ",
"                                                                ",
"                                                                ",
"                                                                ",
"        OOO..                                                   ",
"       oo+++O.                                                  ",
"       oOO+++O     .O                         +OO               ",
"       XoOO+++O    O+O                       +OO++              ",
"        oOOOO+OO   O+O                       OOOO+              ",
"        ooOOOO+O   .O.                       OOO+    +          ",
"         XooOOoO                             ++     ++O         ",
"          .ooooo                                     +.         ",
"                                                                ",
"                                                                ",
"                                                                ",
"                                                                ",
"                                                                ",
"                                                                ",
"                                                                "
};
