/* XPM */
static char *_945faf96a5c41afb58ee4ce4e4f7c4aeNUrEukg58YqaQkJ[] = {
/* columns rows colors chars-per-pixel */
"64 62 41 1 ",
"  c #0B051F",
". c #100523",
"X c #15062E",
"o c #150C2D",
"O c #170733",
"+ c #1F1446",
"@ c #241E54",
"# c #312440",
"$ c #2F306F",
"% c #4E3C59",
"& c #686686",
"* c #696980",
"= c #7A7C91",
"- c #4852EB",
"; c #6A66F4",
": c #686FF0",
"> c #6F72F2",
", c #6F75F2",
"< c #7074F3",
"1 c #727AF3",
"2 c #AC8BAF",
"3 c #A1A3BB",
"4 c #C7A4B5",
"5 c #CFACB7",
"6 c #D7B3B9",
"7 c #F8B4B2",
"8 c #FFD787",
"9 c #FFDA99",
"0 c #FFE388",
"q c #FFE999",
"w c #FACFA3",
"e c #BE9ACE",
"r c #A398FF",
"t c #AAA6FF",
"y c #ACAAFF",
"u c #AFACFF",
"i c #AFB0FF",
"p c #B1B2FF",
"a c #FFEAD6",
"s c #E5EEFF",
"d c white",
/* pixels */
"................................................................",
"................................................................",
"...............................dd...............................",
"..............................d11d..............................",
".............................d1pp1d.............................",
"............................d1pppp6d............................",
"............................d1ppqq6d............................",
"............................d1pppqed............................",
"...........................d1ppppqq6d...........................",
"...........................d1ppppqp1d...........................",
"...........................d1pppppp6d...........................",
"..........................deqppppppq6d...............@@@+.......",
"...............XX.........d6qpp  ppq6d.............X@$$$+.......",
".............++++@........d6qq  a qq6d...........X@@$$$@+.......",
"............+@$$$@.......d6qq   a7 qq6d.........@@$$$$$@+.......",
"...........++$$@@+......d1qqq   aa qqq1d......X@@$$$$$$@+.......",
"...........+@@@@+......d1rqpq   aa7qpqr1d....@@$$$$$$$@++.......",
"...........++@++.......d1rqp    aaa pqr1d@@@.@$$$$$$$@+@+.......",
"............+++......dd1rrrr   aawa7rrrr1dd$+@$$$$$$@+@@+.......",
".................dddd119rrrr   awwaarrrr911dddd$$$$@+@@+X.......",
"..............ddd111199999qq   awwwaqq999991111ddd+@@@@+........",
"............dd111uup99999qqqq  aaaaqqqq99999puq666dd@@+X........",
"...........d11puuuqyyyyppppppppppppppppppyyyyyuqqq6<d+X.........",
"..........d1piipiqqiuuuuuyyttttttttttyqquuuuiiqqpqqp<d..........",
".........d1ppiipqqqqqpiiuuuuuuuyyuuuqqqqqipiiiqipiqpp1d.........",
"..........d111116666e1111111111>>,,<eeeee<11111111111d..........",
"...........ddddddddddd              8  8 dddddddddddd...........",
".....................d              0  0 d......................",
".....................d               08  d......................",
".....................d              0  0 d......................",
"....................d               8  8 #d.....................",
"...................d                      d.....................",
"....................d            &&    s*d......................",
".....................dd         &  && s*d.......................",
".......................dd.      3&   ,,d........................",
".......................d,,ppppppp&pppp,,d.......................",
".......................d,pppppppppppppp,d.......................",
".......................d-,,,,,,,,,,,,,,2d.......................",
"......................d-1ppppppqqppppppq4d......................",
"......................d-11ppppqqqqppppqq5d......................",
".....................d-;ppppqqqqqqqqppppq5d.....................",
"....................d,p;ppppppqqqqppppppqp,d....................",
".....................d,pppppppqppqppppppp,d.....................",
"......................d4,,pppppppppppp,,:d......................",
"..............dd.......d  ,,,,,,,,,,,,s=d.......................",
".............d %d......d     %    % sss=d.......................",
"............d o d......d     %    % sss=d.......................",
"........@@@Xd o d......d     %    % sss=d.......................",
".......++$$$d o d......d      %%%%  sss=d.......................",
".......+@@$$d o d..X@..d             ss=d.....$@@...............",
".......O+@@$d o  d.@$@d              ==dd....$@@$$..............",
"........+@@@d ooo dddd oo            dd......@@@@$..............",
"........++@@d% ooo    oo %dd %%%%%% d........@@@$....$..........",
".........O++@dd oooooo% dd..d      d.........$$.....$$@.........",
"..........X+++d%      dd....d      d.................$X.........",
"...............ddddddd......d      d............................",
"............................d      d............................",
".............................d    d.............................",
"..............................dddd..............................",
"................................................................",
"................................................................",
"................................................................"
};
