/* XPM */
static char *cfb96951f6fb4e55be44d4d02ef12bc8iAE6VALzppGKBvF5[] = {
/* columns rows colors chars-per-pixel */
"64 62 41 1 ",
"  c #0C0913",
". c #0F0C15",
"X c #08031E",
"o c #0B051F",
"O c #120E15",
"+ c #100523",
"@ c #15062E",
"# c #100929",
"$ c #120A2C",
"% c #150C2D",
"& c #170733",
"* c #1F1446",
"= c #241E54",
"- c #2F306F",
"; c #483757",
": c #4E3C59",
"> c #686686",
", c #4852EB",
"< c #6A66F4",
"1 c #686FF0",
"2 c #6F72F2",
"3 c #6F75F2",
"4 c #7074F3",
"5 c #727AF3",
"6 c #AC8BAF",
"7 c #A1A3BB",
"8 c #C7A4B5",
"9 c #CFACB7",
"0 c #D7B3B9",
"q c #F8B4B2",
"w c #FFDA99",
"e c #FFE999",
"r c #BE9ACE",
"t c #A398FF",
"y c #AAA6FF",
"u c #ABA8FF",
"i c #ACAAFF",
"p c #AFACFF",
"a c #AFB0FF",
"s c #B1B2FF",
"d c white",
/* pixels */
"++++++++++++++++++++++++++++++++++++++++++++++++++++++++++++++++",
"++++++++++++++++++++++++++++++++++++++++++++++++++++++++++++++++",
"+++++++++++++++++++++++++++++++dd+++++++++++++++++++++++++++++++",
"++++++++++++++++++++++++++++++d55d++++++++++++++++++++++++++++++",
"+++++++++++++++++++++++++++++d5ss5d+++++++++++++++++++++++++++++",
"++++++++++++++++++++++++++++d5ssss0d++++++++++++++++++++++++++++",
"++++++++++++++++++++++++++++d5ssee0d++++++++++++++++++++++++++++",
"++++++++++++++++++++++++++++d5ssserd++++++++++++++++++++++++++++",
"+++++++++++++++++++++++++++d5ssssee0d+++++++++++++++++++++++++++",
"+++++++++++++++++++++++++++d5sssses5d+++++++++++++++++++++++++++",
"+++++++++++++++++++++++++++d5ssssss0d+++++++++++++++++++++++++++",
"++++++++++++++++++++++++++dresssssse0d+++++++++++++++===*+++++++",
"+++++++++++++++@@+++ddd+++d0esssssse0d+++ddd+++++++@=---*+++++++",
"+++++++++++++****=+d###d++d0eeesssee0d++d###d++++@==---=*+++++++",
"++++++++++++*=---=d%%%%#dd0eessseeeee0dd#%%%%d++==-----=*+++++++",
"+++++++++++**--==*d%%%%%#5esessssseeee5#%%%%%d@==------=*+++++++",
"+++++++++++*====*+d%%%%%%#ssessssseese#%%%%%%d=-------=**+++++++",
"+++++++++++**=**++d%%%%%%#ssssttttesse#%%%%%%d-------=*=*+++++++",
"++++++++++++***+++d%%%%%%%#tttyyyettt#%%%%%%%d------=*==*+++++++",
"+++++++++++++++++dd%%%%%%%#tiuyyyyuit#%%%%%%%dd----=*==*@+++++++",
"++++++++++++++ddd55%%%%%%%eeeeeeeeeeee%%%%%%%55ddd*====*++++++++",
"++++++++++++dd555ppsqwwwwweeeeeeeeeeeeewwwwwspe000dd==*@++++++++",
"+++++++++++d55spppeiiiissssssssssssssssssiiiiipeee04d*@+++++++++",
"++++++++++d5saasaeeapppppiiyyyyyyyyyyieeppppaaeesees4d++++++++++",
"+++++++++d5ssaaseeeeesaapppppppiipppeeeeeasaaaeasaess5d+++++++++",
"++++++++++d555550000r555555555522334rrrrr455555555555d++++++++++",
"+++++++++++dddddddddO%%%%%%%%%%%%%%%%%%%%%%Oddddddddd+++++++++++",
"+++++++++++++++++++d#%%%%%%%%%%%%%%%%%%%%%%#d+++++++++++++++++++",
"+++++++++++++++++++d#%%%%%%%%%%%%%%%%%%%%%%#d+++++++++++++++++++",
"++++++++++++++++++++d#%%%%%%%%%%%%%%%%%%%%#d++++++++++++++++++++",
"++++++++++++++++++++d#%%%%%%%%%%%%%%%%%%%%#d++++++++++++++++++++",
"++++++++++++++++++++d#%%%%%%%%%%%%%%%%%%%%#d++++++++++++++++++++",
"++++++++++++++++++dd>>#%%%%%%%%%%%%%%%%%%#>>dd++++++++++++++++++",
"+++++++++++++++++d>>dd>#%%%%%%%%$$$$$$$$#>dd>>d+++++++++++++++++",
"++++++++++++++++++ddd>7d#OOO.OOO        d7>ddd++++++++++++++++++",
"++++++++++++++++++++d>dd333ssssssssss333dd>d++++++++++++++++++++",
"++++++++++++++++++++dd+d33ssssssssssss33d+dd++++++++++++++++++++",
"+++++++++++++++++++++++d,333333333333336d+++++++++++++++++++++++",
"++++++++++++++++++++++d,5sssssseesssssse8d++++++++++++++++++++++",
"++++++++++++++++++++++d,55sssseeeessssee9d++++++++++++++++++++++",
"+++++++++++++++++++++d,<sssseeeeeeeesssse9d+++++++++++++++++++++",
"++++++++++++++++++++d3s<sssssseeeesssssses3d++++++++++++++++++++",
"++++++++++++++++++++dX3sssssssessesssssss3od++++++++++++++++++++",
"+++++++++++++++++++do$$833ssssssssssss331%%od+++++++++++++++++++",
"++++++++++++++dd+++do%%%:%333333333333$;%%%od+++++++++++++++++++",
"+++++++++++++do:d++do%%%:%%$$$$$$$$$$$$:%%%od+++++++++++++++++++",
"++++++++++++do%od++do%%%:%%%%%%%%%%%%%%:%%%od+++++++++++++++++++",
"++++++++===@do%od+++doooo%%oo:%%%%%%%%%ooood++++++++++++++++++++",
"+++++++**---do%od++++dddo::%%%:%%%%%%%%oddd+++++++++++++++++++++",
"+++++++*==--do%od++@=++do%%%o:%%%%%%%%od++++++-==+++++++++++++++",
"+++++++&*==-do%ood+=-=do%%:o%%%%%%%%%:od+++++-==--++++++++++++++",
"++++++++*===do%%%oddddo%%:%::::::::::%od+++++====-++++++++++++++",
"++++++++**==d:o%%%oooo%%o:%%%%oddo%%%%od+++++===-++++-++++++++++",
"+++++++++&**=ddo%%%%%%:odo%%%%oddo%%%%od+++++--+++++--=+++++++++",
"++++++++++@***d:oooooodddo%%%%oddo%%%%od+++++++++++++-@+++++++++",
"+++++++++++++++ddddddd+++do%%%oddo%%%od+++++++++++++++++++++++++",
"+++++++++++++++++++++++++do%%%oddo%%%od+++++++++++++++++++++++++",
"++++++++++++++++++++++++++doood++doood++++++++++++++++++++++++++",
"+++++++++++++++++++++++++++ddd++++ddd+++++++++++++++++++++++++++",
"++++++++++++++++++++++++++++++++++++++++++++++++++++++++++++++++",
"++++++++++++++++++++++++++++++++++++++++++++++++++++++++++++++++",
"++++++++++++++++++++++++++++++++++++++++++++++++++++++++++++++++"
};
