/* XPM */
static char *_e6f3b4b5fff466ea2640b51eabf7fefsj6M8uChgQ5eCyFy[] = {
/* columns rows colors chars-per-pixel */
"64 62 41 1 ",
"  c black",
". c #0B051F",
"X c #100523",
"o c #15062E",
"O c #150C2D",
"+ c #170733",
"@ c #1F1446",
"# c #241E54",
"$ c #312440",
"% c #2F306F",
"& c #4E3C59",
"* c #79737E",
"= c #686686",
"- c #696980",
"; c #7A7C91",
": c #4852EB",
"> c #6A66F4",
", c #686FF0",
"< c #6F72F2",
"1 c #6F75F2",
"2 c #7074F3",
"3 c #727AF3",
"4 c #AC8BAF",
"5 c #A1A3BB",
"6 c #C7A4B5",
"7 c #CFACB7",
"8 c #D7B3B9",
"9 c #F8B4B2",
"0 c #FFDA99",
"q c #FFE999",
"w c #FACFA3",
"e c #BE9BCE",
"r c #A398FF",
"t c #AAA6FF",
"y c #ACAAFF",
"u c #ACACFF",
"i c #AFB0FF",
"p c #B1B2FF",
"a c #FFEAD6",
"s c #E5EEFF",
"d c white",
/* pixels */
"XXXXXXXXXXXXXXXXXXXXXXXXXXXXXXXXXXXXXXXXXXXXXXXXXXXXXXXXXXXXXXXX",
"XXXXXXXXXXXXXXXXXXXXXXXXXXXXXXXXXXXXXXXXXXXXXXXXXXXXXXXXXXXXXXXX",
"XXXXXXXXXXXXXXXXXXXXXXXXXXXXXXXddXXXXXXXXXXXXXXXXXXXXXXXXXXXXXXX",
"XXXXXXXXXXXXXXXXXXXXXXXXXXXXXXd33dXXXXXXXXXXXXXXXXXXXXXXXXXXXXXX",
"XXXXXXXXXXXXXXXXXXXXXXXXXXXXXd3pp3dXXXXXXXXXXXXXXXXXXXXXXXXXXXXX",
"XXXXXXXXXXXXXXXXXXXXXXXXXXXXd8pppp3dXXXXXXXXXXXXXXXXXXXXXXXXXXXX",
"XXXXXXXXXXXXXXXXXXXXXXXXXXXXd8qqpp3dXXXXXXXXXXXXXXXXXXXXXXXXXXXX",
"XXXXXXXXXXXXXXXXXXXXXXXXXXXXdeqppp3dXXXXXXXXXXXXXXXXXXXXXXXXXXXX",
"XXXXXXXXXXXXXXXXXXXXXXXXXXXd8qqpppp3dXXXXXXXXXXXXXXXXXXXXXXXXXXX",
"XXXXXXXXXXXXXXXXXXXXXXXXXXXd3pqpppp3dXXXXXXXXXXXXXXXXXXXXXXXXXXX",
"XXXXXXXXXXXXXXXXXXXXXXXXXXXd8pppppp3dXXXXXXXXXXXXXXXXXXXXXXXXXXX",
"XXXXXXXXXXXXXXXXXXXXXXXXXXd8qppppppqedXXXXXXXXXXXXXXX###@XXXXXXX",
"XXXXXXXXXXXXXXXooXXXXXXXXXd8qpp..ppq8dXXXXXXXXXXXXXo#%%%@XXXXXXX",
"XXXXXXXXXXXXX@@@@#XXXXXXXXd8qq.a..qq8dXXXXXXXXXXXo##%%%#@XXXXXXX",
"XXXXXXXXXXXX@#%%%#XXXXXXXd8qq.9a...qq8dXXXXXXXXX##%%%%%#@XXXXXXX",
"XXXXXXXXXXX@@%%##@XXXXXXd3qqq.aa...qqq3dXXXXXXo##%%%%%%#@XXXXXXX",
"XXXXXXXXXXX@####@XXXXXXd3rqpq9aa...qpqr3dXXXX##%%%%%%%#@@XXXXXXX",
"XXXXXXXXXXX@@#@@XXXXXXXd3rqp.aaa....pqr3d###X#%%%%%%%#@#@XXXXXXX",
"XXXXXXXXXXXX@@@XXXXXXdd3rrrr9awaa...rrrr3dd%@#%%%%%%#@##@XXXXXXX",
"XXXXXXXXXXXXXXXXXdddd330rrrraawwa...rrrr033dddd%%%%#@##@oXXXXXXX",
"XXXXXXXXXXXXXXddd333300000qqawwwa...qq000003333ddd@####@XXXXXXXX",
"XXXXXXXXXXXXdd888qup00000qqqqaaaa..qqqq00000puu333dd##@oXXXXXXXX",
"XXXXXXXXXXXd28qqquyyyyyppppppppppppppppppyyyyquuup33d@oXXXXXXXXX",
"XXXXXXXXXXd2pqqpqqiiuuuuqqyttttttttttyyuuuuuiqqipiip3dXXXXXXXXXX",
"XXXXXXXXXd3ppqipiqiiipiqqqqquuuyyuuuuuuuiipqqqqqpiipp3dXXXXXXXXX",
"XXXXXXXXXXd333333333332eeeee211<<3333333333e888833333dXXXXXXXXXX",
"XXXXXXXXXXXdddddddddddd...................dddddddddddXXXXXXXXXXX",
"XXXXXXXXXXXXXXXXXXXXXXd       ............dXXXXXXXXXXXXXXXXXXXXX",
"XXXXXXXXXXXXXXXXXXXXXXd    dd&............dXXXXXXXXXXXXXXXXXXXXX",
"XXXXXXXXXXXXXXXXXXXXXXd.     *............dXXXXXXXXXXXXXXXXXXXXX",
"XXXXXXXXXXXXXXXXXXXXXd$..****..............dXXXXXXXXXXXXXXXXXXXX",
"XXXXXXXXXXXXXXXXXXXXXd......................dXXXXXXXXXXXXXXXXXXX",
"XXXXXXXXXXXXXXXXXXXXXXd-s....==............dXXXXXXXXXXXXXXXXXXXX",
"XXXXXXXXXXXXXXXXXXXXXXXd-s.==..=.........ddXXXXXXXXXXXXXXXXXXXXX",
"XXXXXXXXXXXXXXXXXXXXXXXXd11...=5......XddXXXXXXXXXXXXXXXXXXXXXXX",
"XXXXXXXXXXXXXXXXXXXXXXXd11pppp=ppppppp11dXXXXXXXXXXXXXXXXXXXXXXX",
"XXXXXXXXXXXXXXXXXXXXXXXd1pppppppppppppp1dXXXXXXXXXXXXXXXXXXXXXXX",
"XXXXXXXXXXXXXXXXXXXXXXXd411111111111111:dXXXXXXXXXXXXXXXXXXXXXXX",
"XXXXXXXXXXXXXXXXXXXXXXd6qppppppqqpppppp3:dXXXXXXXXXXXXXXXXXXXXXX",
"XXXXXXXXXXXXXXXXXXXXXXd7qqppppqqqqpppp33:dXXXXXXXXXXXXXXXXXXXXXX",
"XXXXXXXXXXXXXXXXXXXXXd7qppppqqqqqqqqpppp>:dXXXXXXXXXXXXXXXXXXXXX",
"XXXXXXXXXXXXXXXXXXXXd1pqppppppqqqqpppppp>p1dXXXXXXXXXXXXXXXXXXXX",
"XXXXXXXXXXXXXXXXXXXXXd1pppppppqppqppppppp1dXXXXXXXXXXXXXXXXXXXXX",
"XXXXXXXXXXXXXXXXXXXXXXd,11pppppppppppp116dXXXXXXXXXXXXXXXXXXXXXX",
"XXXXXXXXXXXXXXXXXXXXXXXd;s111111111111..dXXXXXXXddXXXXXXXXXXXXXX",
"XXXXXXXXXXXXXXXXXXXXXXXd;sss.&....&.....dXXXXXXd&.dXXXXXXXXXXXXX",
"XXXXXXXXXXXXXXXXXXXXXXXd;sss.&....&.....dXXXXXXd.O.dXXXXXXXXXXXX",
"XXXXXXXX###ooXXXXXXXXXXd;sss.&....&.....dXXXXXXd.O.dXXXXXXXXXXXX",
"XXXXXXX@@%%%#oXXXXXXXXXd;sss..&&&&......dXXXXXXd.O.dXXXXXXXXXXXX",
"XXXXXXX@##%%%#XXXXXo#XXd;ss.............dXXXXX%d.O.dXXXXXXXXXXXX",
"XXXXXXX+@##%%%#XXXX#%#Xdd;;..............dXXX%d..O.dXXXXXXXXXXXX",
"XXXXXXXX@####%##XXX#%#XXXdd............OO.dddd.OOO.dXXXXXXXXXXXX",
"XXXXXXXX@@####%#XXXo#oXXXXXd.&&&&&&.dd&.OO....OOO.&dX%XXXXXXXXXX",
"XXXXXXXXX+@@##@#XXXXXXXXXXXXd......dXXdd.&OOOOOO.ddX%%#XXXXXXXXX",
"XXXXXXXXXXo@@@@@XXXXXXXXXXXXd......dXXXXdd......&dXXX%oXXXXXXXXX",
"XXXXXXXXXXXXXXXXXXXXXXXXXXXXd......dXXXXXXdddddddXXXXXXXXXXXXXXX",
"XXXXXXXXXXXXXXXXXXXXXXXXXXXXd......dXXXXXXXXXXXXXXXXXXXXXXXXXXXX",
"XXXXXXXXXXXXXXXXXXXXXXXXXXXXXd....dXXXXXXXXXXXXXXXXXXXXXXXXXXXXX",
"XXXXXXXXXXXXXXXXXXXXXXXXXXXXXXddddXXXXXXXXXXXXXXXXXXXXXXXXXXXXXX",
"XXXXXXXXXXXXXXXXXXXXXXXXXXXXXXXXXXXXXXXXXXXXXXXXXXXXXXXXXXXXXXXX",
"XXXXXXXXXXXXXXXXXXXXXXXXXXXXXXXXXXXXXXXXXXXXXXXXXXXXXXXXXXXXXXXX",
"XXXXXXXXXXXXXXXXXXXXXXXXXXXXXXXXXXXXXXXXXXXXXXXXXXXXXXXXXXXXXXXX"
};
