/* XPM */
static char *cbf29f9d32824b59eb4e48598345207cyOuqJqN5KdjFKN84[] = {
/* columns rows colors chars-per-pixel */
"64 62 39 1 ",
"  c black",
". c #0B051F",
"X c #120E15",
"o c #100523",
"O c #15062E",
"+ c #100929",
"@ c #150C2D",
"# c #170733",
"$ c #1F1446",
"% c #241E54",
"& c #2F306F",
"* c #4E3C59",
"= c #79737E",
"- c #686686",
"; c #6F72F2",
": c #6F75F2",
"> c #7074F3",
", c #727AF3",
"< c #A1A3BB",
"1 c #D7B3B9",
"2 c #F8B4B2",
"3 c #FFD787",
"4 c #FFDA99",
"5 c #FFE388",
"6 c #FFE999",
"7 c #FACFA3",
"8 c #BE9ACE",
"9 c #A198FF",
"0 c #A398FF",
"q c #A49BFF",
"w c #AAA6FF",
"e c #ABA8FF",
"r c #ACAAFF",
"t c #AFACFF",
"y c #AFB0FF",
"u c #B1B2FF",
"i c #FFEAD6",
"p c #E5EEFF",
"a c white",
/* pixels */
"oooooooooooooooooooooooooooooooooooooooooooooooooooooooooooooooo",
"oooooooooooooooooooooooooooooooooooooooooooooooooooooooooooooooo",
"oooooooooooooooooooooooooooooooaaooooooooooooooooooooooooooooooo",
"ooooooooooooooooooooooooooooooa,,aoooooooooooooooooooooooooooooo",
"oooooooooooooooooooooooooooooa,uu,aooooooooooooooooooooooooooooo",
"ooooooooooooooooooooooooooooa,uuuu1aoooooooooooooooooooooooooooo",
"ooooooooooooooooooooooooooooa,uu661aoooooooooooooooooooooooooooo",
"ooooooooooooooooooooooooooooa,uuu68aoooooooooooooooooooooooooooo",
"oooooooooooooooooooooooooooa,uuuu661aooooooooooooooooooooooooooo",
"oooooooooooooooooooooooooooa,uuuu6u,aooooooooooooooooooooooooooo",
"oooooooooooooooooooooooooooa,uuuuuu1aooooooooooooooooooooooooooo",
"ooooooooooooooooooooooooooa86uuuuuu61aooooooooooooooo%%%$ooooooo",
"oooooooooooooooOOoooaaaoooa16uuuuuu61aoooaaaoooooooO%&&&$ooooooo",
"ooooooooooooo$$$$%oa+++aooa1666uuu661aooa+++aooooO%%&&&%$ooooooo",
"oooooooooooo$%&&&%a+@@@+aa166uuu666661aa+@@@+aoo%%&&&&&%$ooooooo",
"ooooooooooo$$&&%%$a2ii@@+,6u6uuuuu6666,+@@ii2aO%%&&&&&&%$ooooooo",
"ooooooooooo$%%%%$oa2iii@@+uu6uuuuu66u6+@@iii2a%&&&&&&&%$$ooooooo",
"ooooooooooo$$%$$ooa2iii@@+uuuu00006uu6+@@iii2a&&&&&&&%$%$ooooooo",
"oooooooooooo$$$oooa2iiii@@+000www6000+@@iiii2a&&&&&&%$%%$ooooooo",
"oooooooooooooooooaa2iii7@@+0rewwwwer0+@@7iii2aa&&&&%$%%$Oooooooo",
"ooooooooooooooaaa,,2ii77@26666666666662@77ii2,,aaa$%%%%$oooooooo",
"ooooooooooooaa,,,ttu244444666666666666644444ut6111aa%%$Ooooooooo",
"oooooooooooa,,uttt6rrrruuuuuuuuuuuuuuuuuurrrrrt6661>a$Oooooooooo",
"ooooooooooa,uyyuy66ytttttrrwwwwwwwwwwr66ttttyy66u66u>aoooooooooo",
"oooooooooa,uuyyu66666uyytttttttrrttt66666yuyyy6yuy6uu,aooooooooo",
"ooooooooooa,,,,,11118,,,,,,,,,,;;::>88888>,,,,,,,,,,,aoooooooooo",
"oooooooooooaaaaaaaaaX@@@@3@@3@@@@@@@@@@@@@@Xaaaaaaaaaooooooooooo",
"oooooooooooooooooooa+@@@@5@@5@@@@@       @@+aooooooooooooooooooo",
"oooooooooooooooooooa+@@@@@53@@@@@@    aa*@@+aooooooooooooooooooo",
"ooooooooooooooooooooa+@@@5@@5@@**@@     =@+aoooooooooooooooooooo",
"ooooooooooooooooooooa+@@@3@@3@@@@@@@====@@+aoooooooooooooooooooo",
"ooooooooooooooooooooa+@@@@@@@@@XX@@@@@@@@@+aoooooooooooooooooooo",
"ooooooooooooooooooaa--+@@@@@@@XppX@@@@@@@+--aaoooooooooooooooooo",
"oooooooooooooooooa--aa-+@@@@@pppppp@@@@@+-aa--aooooooooooooooooo",
"ooooooooooooooooooaaa-<a+XXXXXXXXXXXXXXXa<-aaaoooooooooooooooooo",
"ooooooooooooooooooooa-aa,6666u0,,0uuuuu,aa-aoooooooooooooooooooo",
"ooooooooooooooooooooaaoa,6u6u0,,,,0uuuu,aoaaoooooooooooooooooooo",
"oooooooooooooooooooooooa,,,u6,u,,u,0u,,1aooooooooooooooooooooooo",
"ooooooooooooooooooooooa,uuu,,uu,,6u,,uu61aoooooooooooooooooooooo",
"ooooooooooooooooooooooa,uuuuuuu,16uuuu661aoooooooooooooooooooooo",
"oooooooooooooooooooooa,0t6uuuuu,1666u66661aooooooooooooooooooooo",
"ooooooooooooooooooooa,0066rrruu,166rrrrt60,aoooooooooooooooooooo",
"ooooooooooooooooooooa.,66666rrr,,r6req060,.aoooooooooooooooooooo",
"oooooooooooooooooooa.@@111660er,,re000,,,@@.aooooooooooooooooooo",
"ooooooooooooooaaoooa.@@@*@11,,,,,,,,,,@*@@@.aooooooooooooooooooo",
"oooooooooooooa.*aooa.@@p*@@pppppppppp@@*p@@.aooooooooooooooooooo",
"ooooooooooooa.@.aooa.@@p*@@@pppppppp@@@*p@@.aooooooooooooooooooo",
"oooooooo%%%Oa.@.aoooa....@@@pppppppp@@@....aoooooooooooooooooooo",
"ooooooo$$&&&a.@.aooooaaa.@@@@@pppp@@@@@.aaaooooooooooooooooooooo",
"ooooooo$%%&&a.@.aooO%ooa..@@@@@@@@@@@@.aoooooo&%%ooooooooooooooo",
"ooooooo#$%%&a.@..ao%&%a.@.*@@@@@@@@@@*.aooooo&%%&&oooooooooooooo",
"oooooooo$%%%a.@@@.aaaa.@@*@**********@.aooooo%%%%&oooooooooooooo",
"oooooooo$$%%a*.@@@....@@.*@@@@.aa.@@@@.aooooo%%%&oooo&oooooooooo",
"ooooooooo#$$%aa.@@@@@@*.a.@@@@.aa.@@@@.aooooo&&ooooo&&%ooooooooo",
"ooooooooooO$$$a*......aaa.@@@@.aa.@@@@.aooooooooooooo&Oooooooooo",
"oooooooooooooooaaaaaaaoooa.@@@.aa.@@@.aooooooooooooooooooooooooo",
"oooooooooooooooooooooooooa.@@@.aa.@@@.aooooooooooooooooooooooooo",
"ooooooooooooooooooooooooooa...aooa...aoooooooooooooooooooooooooo",
"oooooooooooooooooooooooooooaaaooooaaaooooooooooooooooooooooooooo",
"oooooooooooooooooooooooooooooooooooooooooooooooooooooooooooooooo",
"oooooooooooooooooooooooooooooooooooooooooooooooooooooooooooooooo",
"oooooooooooooooooooooooooooooooooooooooooooooooooooooooooooooooo"
};
