/* XPM */
static char *d5224fafacc8491cdf2f7bfdfab5a3a5IbjuXsRTM40SMkYL[] = {
/* columns rows colors chars-per-pixel */
"64 62 76 1 ",
"  c #100523",
". c #15062E",
"X c #170733",
"o c #1F1446",
"O c #241E54",
"+ c #2F306F",
"@ c #682C7F",
"# c #672D85",
"$ c #682D83",
"% c #682F8C",
"& c #69308E",
"* c #70328B",
"= c #6B3391",
"- c #713693",
"; c #743995",
": c #793D95",
"> c #773C98",
", c #7B3E98",
"< c #7E4199",
"1 c #803F91",
"2 c #804194",
"3 c #804399",
"4 c #A577B6",
"5 c #A579B6",
"6 c #A57CBD",
"7 c #F17BC2",
"8 c #F681AD",
"9 c #F983AD",
"0 c #FA8FAD",
"q c #FE94AE",
"w c #F685B5",
"e c #FA85B2",
"r c #F78AB6",
"t c #FA8CB0",
"y c #F686BE",
"u c #F788B9",
"i c #FE97B0",
"p c #FB9AB6",
"a c #F99FBB",
"s c #FAA0AE",
"d c #FEA3B6",
"f c #FEA2BA",
"g c #FEB7B3",
"h c #FEBEB5",
"j c #FEBDBD",
"k c #FDD398",
"l c #FEC2B6",
"z c #FECAB6",
"x c #FEC3BB",
"c c #FECCBA",
"v c #F687C3",
"b c #F182CE",
"n c #FEBBC4",
"m c #FEC1C1",
"M c #FEC8C3",
"N c #FECAC5",
"B c #FECEC7",
"V c #FECFCA",
"C c #FED0C7",
"Z c #FED3C9",
"A c #FED2CE",
"S c #FED5CF",
"D c #FED8CD",
"F c #FCD6D1",
"G c #FEDAD2",
"H c #FEDDD3",
"J c #FCDBD6",
"K c #FEDDD7",
"L c #FEDAD8",
"P c #FEDCD8",
"I c #FEDFDC",
"U c #FEE0DA",
"Y c #FEE3DE",
"T c #FEE5DE",
"R c #FEE5E0",
"E c #FEE8E2",
/* pixels */
"                                                                ",
"                                                                ",
"                                                                ",
"                                                                ",
"                                                                ",
"                                                                ",
"                                                                ",
"                                                                ",
"              P                                                 ",
"             PEP                                                ",
"              P                                                 ",
"                               ee                    OOOo       ",
"               ..             9zz9                 .O+++o       ",
"             ooooO           9zDDz9              .OO+++Oo       ",
"            oO+++O           wDKTDw             OO+++++Oo       ",
"           oo++OOo          9ZTKPTZ9        k .OO++++++Oo       ",
"           oOOOOo           pKTKKPKp       kkEO+++++++Ooo       ",
"           ooOoo           9ZYTPPUUZ9    OOOkO+++++++OoOo       ",
"            ooo            pKRTPUUPHp    O++oO++++++OoOOo       ",
"                          0ZYETPUUUPV0   O++o++++++OoOOo.       ",
"                          pKRERPPUUPHp   OOOXO+++OoOOOOo        ",
"                         0CTEEEUPPUUKB0   .  OOOooOOOOo.        ",
"                         pKREEEUPPPPPGp      ooOOOOOOo.         ",
"                        qCYEEEEUPPPPPJBi      ooooooo           ",
"                       iaPREEEEUPPPPPPGai                       ",
"            ywwwwrwwwwwBPREEEEEUUUPPPPPPBwwwwwrwwwwy            ",
"           yhCJPUUYYIIIYREEEEEEUUU3PPUUPYIIIYYUUPJChy           ",
"          vhCPRRRRREEEEEEEEEEEEUU3E3PPUEEEEEERRRRRPChv          ",
"          ucFRRREEEEEEEEEEEREEEUPP3PPPREEEEEEEEERRRFcu          ",
"          ucGRREEEEEEEEEEEEERRRUPPPPUREEEEEEEEEEERRGcu          ",
"          utxFREEEEEEEEEEEEEEREYPPPYREEEE3EEEEEEERFxtu          ",
"           ugZKEEEEEER3EEEEEEEERRTTREEEE333EEEEEEKZgu           ",
"            uxSPPEEEE3k3EEEEEEEEEEEEEEEkR3EEEEEPPSxu            ",
"             wxFPPPRRkkkEEEEE6EEEE3666kEk66RRPPPFxw             ",
"              wxS23546k6666666666666666k666453PSxw              ",
"               ux23333433335555555555555544453Gxu               ",
"                wx1333333333335445555555556331xw                ",
"                 wx2<33333<3353333555666<33<Fxw                 ",
"                  8x2333<<<<555<<<<<<<<<<33Jx8                  ",
"                   8A<<<<<<<<6<<<<<<<3<33<3A8                   ",
"                   8A33,<<<<<<<<<<<<<<<,,<<A8                   ",
"                   tF<<,<,,,,,:,,,,,,<,,,,3Ft                   ",
"                   nL,,,6,,,:::::,,,,,,6,,,Ln                   ",
"                  uV:,,666>;;;;;;;>;>;666>>IVu                  ",
"                  uZ;;;;6;-----------;-6--;-Zu                  ",
"                  wZ------------------------Zw                  ",
"                  d*=--=====&==&============Fd                  ",
"        OOO..k    n&======&&&&%MN&==========Pn                  ",
"       oo+++k.k  uB%===&&%%%FBj88jBF%&======&Bu                 ",
"       oOO+++k   uB&==&&&%FBjq8  8qjBF&&&===&BuOO               ",
"       XoOO+++O  wB&&&%%FVjpw      wpjVF%%==&BwO++              ",
"        oOOOO+OO 8M%%%FBxfu          ufBV%%&%M8OO+              ",
"        ooOOOO+O 8l@#Vjpu              wpm$#@l8O+    +          ",
"         XooOOoO bsllpu                  upllsb     ++O         ",
"          .ooooo  7wu                      uub       +.         ",
"                                                                ",
"                                                                ",
"                                                                ",
"                                                                ",
"                                                                ",
"                                                                ",
"                                                                "
};
