/* XPM */
static char *ee358d0e3dca41b9e84befaeb9a44b7bUmd2YxQqK4o6U3DG[] = {
/* columns rows colors chars-per-pixel */
"64 62 79 1 ",
"  c #100523",
". c #A37E6E",
"X c #4D2FA9",
"o c #542FA8",
"O c #5B2FA8",
"+ c #5634AC",
"@ c #5D33AB",
"# c #5E3CAE",
"$ c #612FA8",
"% c #6D30A7",
"& c #6533AB",
"* c #6E33AA",
"= c #6238AD",
"- c #7030A7",
"; c #7136AB",
": c #7439AC",
"> c #7D3FAE",
", c #6444B1",
"< c #6C46B2",
"1 c #6E4CBF",
"2 c #7246B2",
"3 c #7A46B2",
"4 c #7C48B3",
"5 c #6E55BE",
"6 c #7157BD",
"7 c #745ABC",
"8 c #7D5CBB",
"9 c #7960BB",
"0 c #6C4AC0",
"q c #803EAE",
"w c #AA7E8B",
"e c #8645AF",
"r c #8346B2",
"t c #855DBB",
"y c #895EBB",
"u c #8563BA",
"i c #8B61BA",
"p c #8769BB",
"a c #8C6CBA",
"s c #9365BA",
"d c #9469BA",
"f c #9B6CBA",
"g c #9272BA",
"h c #9C72BA",
"j c #9E79BA",
"k c #A26BB5",
"l c #A16EBA",
"z c #A272BA",
"x c #AA75BC",
"c c #A37ABA",
"v c #A97ABA",
"b c #AA7EBA",
"n c #AC7EBB",
"m c #AF7ABD",
"M c #AF7CBD",
"N c #B17BBE",
"B c #B17CBE",
"V c #B47FBE",
"C c #B479C0",
"Z c #B77CC0",
"A c #B87BC0",
"S c #B97EC1",
"D c #BE7FC3",
"F c #B38092",
"G c #B780A1",
"H c #A481BA",
"J c #A780BA",
"K c #AB81BA",
"L c #AD81BB",
"P c #AF81BC",
"I c #B580B6",
"U c #B481BB",
"Y c #B381BE",
"T c #B781BF",
"R c #BE81B8",
"E c #BB82C1",
"W c #BD80C2",
"Q c #C182C3",
"! c #C082C4",
/* pixels */
"                                                                ",
"                                                                ",
"                                                                ",
"     ------------------------------------------------------     ",
"    %%%%%%%eeeeeeeeeeeeeeeeeeeeeeeeeeeeeeeeeeeeeeeeee%%%%%%%    ",
"    %%ZZ!Z!S!S!S!!S!S!S!D!SS!D!q;Q!W!!W!W!W!W!WW!W!!!!!!!!%%    ",
"    %%ZZ!Z!S!S!S!!S!S!S!D!SS!D!q;Q!W!!W!W!W!W!WW!W!!!!!!!!%%    ",
"   %%r!!!!!!!!!!!!!!!C!!!!!!!!C;;!!!!!!S!!!!!!!!!!!!!!!!WWr%%   ",
"   %>!zz!z!z!z!x!!x!x!x!x!xx!x!;;R!m!!m!N!N!N!CC!C!Z!S!S!!S3%   ",
"   %rAWWWWWWWWWWWWWWWWWWWWWWWQW;;WWQQQWWWWWWQWWWWWWWWWQQQQAr%   ",
"   %rWffQfWfWfWfWQfWfWfWfWffWfW;;GWfWWfWfWfWfWffWfWlWlWlWWlr%   ",
"   %rWWWQQQWWWWWWQWWWWWWWWWWWQW;;WWWWWWWWWQQQQWWWWWWWWWWWWWr%   ",
"   %rWffWfWfWdWdWWdWdWsWsWssWsW;;FWiWWyWyWyWyWyyWyWyWiWiWWyr%   ",
"   %3kWWWWWWWWWWWWWWWWWWWWWWWWW;;WWWWWWWWWWWWWWWWWWWWWWWWWk3%   ",
"   %r;;;;:rrrrrrrrrrrrrrrrrrrrrrrrrrrrrrrrrrrrrrrrrrrr:;;;;r%   ",
"   *****;;:;;;;:;;;;;:;;;;************;;;;:;;;;;:;;;;:;***Er&   ",
"   ******;:;***:;;;;*:;;;;************;;;;:;;;;;:;;;*:**%%Er&   ",
"   &3EffEfEfEfEfEEfEfEzEzEzzEzEzEzEzEEzEzE*EfEffEfEfEfEfEEf3&   ",
"   &3EEEEEEEEEEEEEEEEEEEEEEEEEEEEEEEEEEEEE*EEEEEEEEEEEEEEEE3&   ",
"   &3EvvEvEmEmEmEEmEmEmENEBBEBEBEBEBEEVEBE*EBEBBEBEBENENEEm3&   ",
"   &3EEEEEEEEEEEEEEEEEEEEEEEEEEEEEEEEEEEEE*EEEEEEEEEEEEEEEE3&   ",
"   &3EmmEmEmEmEmEEMEmEMEMEmmEmEmEmEmEEmEmE*EmEMMEMEBEBEBEEB3&   ",
"   $3EEEEEEEEEEEEEEEEEEEEEEEEEEEEEEEEEEEEE%EEEEEEEEEEEEEEEE3$   ",
"   $3VhhTfTfTfTfTTfTfTfTfTffTfTfTfTfTTfTfT%TfTffTfThThTzTTh3$   ",
"   $3TTTTTTTTTTTTTTTTsTTTTTTTTTTTTTTTTTiTT%TTTTTsTTTTTTTddT3$   ",
"   $2TiiTyTyTyTyTTyTyTyTyTyyTyTyTyTyTTyTyT&TyTyyTyTyTiTiTTi2$   ",
"   $2TiiTyTyTyTyTTyTyTyTyTyyTyTyTyTyTTyTyT&TyTyyTyTyTiTiTTi2$   ",
"   $$TTTTTTTTTTTTTTTTTTTTTTTTTTTTTTTTTTTTT&TTTTTTTTTTTTTTTT$$   ",
"   O$TyyTyTyTyTyTTyTyTyTyTytTyTyTyTyTTyTyT&TyTyyTyTtTyTyTTt$$   ",
"   O&MTTTYVTTTTTTTTTTTTTTTTTTTTTTTTTTTTTTT&TTTTTTTTTTVTTTTM&O   ",
"   O3O333333333333333333&&&&&&&&&&&&&&&&&&&&&3333333333333O3O   ",
"   O43&&&&&&&&&&&&&&&&333333333&&333333333333&&&&&&&&&&33334O   ",
"   O2YccYcYvYvYbYYvYvYvYbYbbYbY&&UYbYYbYbYbYbYvvYvYvYcYcYYc2O   ",
"   O2vYYYYYYnYYYYYYYYYYYYYYYYYB&&YYYYYYYYYYYYYYYMYYYYYYYYYv2O   ",
"   O2BbbYbYbYnYbYYbYbYbYnYnnYnY33YYMYYMYbYPYPYPPYPYnYnYMYYb2O   ",
"   O2BYYYYYYYYYYYYYYYYYYYYYYYYY22YYYYYYYYYYYYYYYYYYYYYYYYYB2O   ",
"   O2BYYYYYYYYYYYYYYYYYYYYYYYYY22YYYYYYYYYYYYYYYYYYYYYYYYYB2O   ",
"   O2BhhYhYhYhYhYYhYhYhYhYhhYhY22IYhYYhYhYhYhYhhYhYcYcYcYYc2O   ",
"   O2PPPPPPPPPPPPPPPPPPPPPPPPPP&&PPPPPPPPPPPPPPPPPPPPPPPLPP2O   ",
"   O2PuuPtP8P8P8PP8P8P8P8P88P8P@&wP8PP8PtPtPtPttPuPuPuPuLLu2O   ",
"   O<PPPPPPPPPPPPPPPPPPPPPPPPPP&&PPPPPPPPPPPPPPPPPPPPPPPPPP<O   ",
"   o<L11L1L1L1L0LL0L0L0L0L00L0L@@.L0LL0L0L0L0L00L0L0L0L0LL1<o   ",
"   @2LLLLLLLnncnnnnnL0LLLLLLLL0@@LLLLLL0LLLLnnnnbcbbLLLL00L2@   ",
"   o<@@@@@@=@@@@@@@@@@@@@@@@22222222@@@@@@@@@@@@@@@@=@@@@@@<o   ",
"   @2@@@@@@@@@222222222222222=@==@=222222222222222@@@@@@@@@2@   ",
"   o2oaaKaKaKaK2@@aKaKaKaKaaKaKaKaKaKKaKaKaKaK@@2aKaKuKuKKo2o   ",
"   o2oaaKaKaKaK2@@aKaKaKaKaaKaKaKaKaKKaKaKaKaK@@2aKaKuKuKKo2o   ",
"   o2<KKJKKKKKK@@@KKKKKKKKKKKKKKKKKKKKKKJJKKKK@@@KKKKKKKKK<2o   ",
"   o2<jjKjKjKjK@22jKcKcKcKccKcKcKcKjKKjKcJcKjK22@jKjKjKjKK<2o   ",
"   o2<JJJJJJJJJ+<<JJJKJJJJJJJJJJJJJJJJJJJJJJJJ<<@JJJJJJJJJ<2o   ",
"   o<<jjJjJjJjJ+<<jJjJjJjJjjJjJjJjJjJJjJjJjJjJ<<+jJjJjJjJJ<<o   ",
"   o<<JJJJJJhJJ+<<JJJJJJJJJJJJgJJJJJJJJJJJJJJJ<<+JJJJJJJJJ<<o   ",
"   o<<aaJaJaJaJ+<<pJpJpJpJppJpJpHpJpJJpJpJpJaJ<<+aJaJaJaJJ<<o   ",
"   X<<JJJJJHJJJ#<<JJJJJJJJJJJJJJHJJJJJJJJJJJJJ<<#JJJJJJJJJ<<X   ",
"   XX<99J8J8J7J<<<5J5J5J5J55J5J5H5J5JJ5J6J5J5J<<<6J6J7J7JJ<XX   ",
"    X+JJJJJJJJJ+<<jJJJJJJJJJJJJJJJJJJJJJJJJJJJ<<+JJJJJJJJJ+X    ",
"    X+JJJJJJJJJ+<<jJJJJJJJJJJJJJJJJJJJJJJJJJJJ<<+JJJJJJJJJ+X    ",
"    X+##,,<<<<<,<<<,,,,,,,,,,,,,,,,,,,,,,,,,,,,,,<<<<<,,##+X    ",
"     XXXXXXXXXXX+++XXXXXXXXXXXXXXXXXXXXXXXXXXXXXXXXXXXXXXXX     ",
"                                                                ",
"                                                                ",
"                                                                "
};
